<?xml version="1.0" encoding="UTF-8" standalone="no"?>
<!-- Created with Inkscape (http://www.inkscape.org/) -->

<svg
   xmlns:dc="http://purl.org/dc/elements/1.1/"
   xmlns:cc="http://creativecommons.org/ns#"
   xmlns:rdf="http://www.w3.org/1999/02/22-rdf-syntax-ns#"
   xmlns:svg="http://www.w3.org/2000/svg"
   xmlns="http://www.w3.org/2000/svg"
   xmlns:sodipodi="http://sodipodi.sourceforge.net/DTD/sodipodi-0.dtd"
   xmlns:inkscape="http://www.inkscape.org/namespaces/inkscape"
   sodipodi:docname="Nouveau document 1"
   inkscape:version="0.48.4 r9939"
   version="1.1"
   id="svg2"
   height="297mm"
   width="210mm">
  <sodipodi:namedview
     id="base"
     pagecolor="#ffffff"
     bordercolor="#666666"
     borderopacity="1.0"
     inkscape:pageopacity="0.0"
     inkscape:pageshadow="2"
     inkscape:zoom="0.98994949"
     inkscape:cx="518.93187"
     inkscape:cy="849.5521"
     inkscape:document-units="px"
     inkscape:current-layer="layer1"
     showgrid="false"
     inkscape:window-width="1920"
     inkscape:window-height="1131"
     inkscape:window-x="-4"
     inkscape:window-y="-4"
     inkscape:window-maximized="1" />
  <defs
     id="defs4" />
  <metadata
     id="metadata7">
    <rdf:RDF>
      <cc:Work
         rdf:about="">
        <dc:format>image/svg+xml</dc:format>
        <dc:type
           rdf:resource="http://purl.org/dc/dcmitype/StillImage" />
        <dc:title></dc:title>
      </cc:Work>
    </rdf:RDF>
  </metadata>
  <g
     inkscape:label="Calque 1"
     inkscape:groupmode="layer"
     id="layer1">
    <path
       sodipodi:type="arc"
       style="opacity:0.98999999000000005;color:#000000;fill:#cba2c0;fill-opacity:1;fill-rule:evenodd;stroke:#000000;stroke-width:0.6;marker:none;visibility:visible;display:inline;overflow:visible;enable-background:accumulate;stroke-opacity:1;stroke-miterlimit:4;stroke-dasharray:none"
       id="path2985"
       sodipodi:cx="55"
       sodipodi:cy="215.21933"
       sodipodi:rx="9.0913725"
       sodipodi:ry="8.0812206"
       d="m 64.091372,215.21933 a 9.0913725,8.0812206 0 1 1 -18.182744,0 9.0913725,8.0812206 0 1 1 18.182744,0 z"
       transform="translate(69.700526,46.467017)" />
    <path
       sodipodi:type="arc"
       style="opacity:0.98999999000000005;color:#000000;fill:#ea83ab;fill-opacity:1;fill-rule:evenodd;stroke:#000000;stroke-width:0.6;marker:none;visibility:visible;display:inline;overflow:visible;enable-background:accumulate;stroke-opacity:1;stroke-miterlimit:4;stroke-dasharray:none"
       id="path2985-1"
       sodipodi:cx="55"
       sodipodi:cy="215.21933"
       sodipodi:rx="9.0913725"
       sodipodi:ry="8.0812206"
       d="m 64.091372,215.21933 a 9.0913725,8.0812206 0 1 1 -18.182744,0 9.0913725,8.0812206 0 1 1 18.182744,0 z"
       transform="translate(125.81731,15.888834)" />
    <path
       sodipodi:type="arc"
       style="opacity:0.98999999000000005;color:#000000;fill:#f27bdd;fill-opacity:1;fill-rule:evenodd;stroke:#000000;stroke-width:0.6;marker:none;visibility:visible;display:inline;overflow:visible;enable-background:accumulate;stroke-opacity:1;stroke-miterlimit:4;stroke-dasharray:none"
       id="path2985-1-7"
       sodipodi:cx="55"
       sodipodi:cy="215.21933"
       sodipodi:rx="9.0913725"
       sodipodi:ry="8.0812206"
       d="m 64.091372,215.21933 a 9.0913725,8.0812206 0 1 1 -18.182744,0 9.0913725,8.0812206 0 1 1 18.182744,0 z"
       transform="translate(124.80715,60.335546)" />
    <path
       sodipodi:type="arc"
       style="opacity:0.98999999000000005;color:#000000;fill:#aeadc0;fill-opacity:1;fill-rule:evenodd;stroke:#000000;stroke-width:0.6;marker:none;visibility:visible;display:inline;overflow:visible;enable-background:accumulate;stroke-opacity:1;stroke-miterlimit:4;stroke-dasharray:none"
       id="path2985-1-7-4"
       sodipodi:cx="55"
       sodipodi:cy="215.21933"
       sodipodi:rx="9.0913725"
       sodipodi:ry="8.0812206"
       d="m 64.091372,215.21933 a 9.0913725,8.0812206 0 1 1 -18.182744,0 9.0913725,8.0812206 0 1 1 18.182744,0 z"
       transform="translate(140.96959,52.254325)" />
    <path
       sodipodi:type="arc"
       style="opacity:0.98999999000000005;color:#000000;fill:#8dd8e0;fill-opacity:1;fill-rule:evenodd;stroke:#000000;stroke-width:0.6;marker:none;visibility:visible;display:inline;overflow:visible;enable-background:accumulate;stroke-opacity:1;stroke-miterlimit:4;stroke-dasharray:none"
       id="path2985-1-7-0"
       sodipodi:cx="55"
       sodipodi:cy="215.21933"
       sodipodi:rx="9.0913725"
       sodipodi:ry="8.0812206"
       d="m 64.091372,215.21933 a 9.0913725,8.0812206 0 1 1 -18.182744,0 9.0913725,8.0812206 0 1 1 18.182744,0 z"
       transform="translate(82.380747,76.497986)" />
    <path
       sodipodi:type="arc"
       style="opacity:0.98999999000000005;color:#000000;fill:#b6b6b7;fill-opacity:1;fill-rule:evenodd;stroke:#000000;stroke-width:0.6;marker:none;visibility:visible;display:inline;overflow:visible;enable-background:accumulate;stroke-opacity:1;stroke-miterlimit:4;stroke-dasharray:none"
       id="path2985-1-7-9"
       sodipodi:cx="55"
       sodipodi:cy="215.21933"
       sodipodi:rx="9.0913725"
       sodipodi:ry="8.0812206"
       d="m 64.091372,215.21933 a 9.0913725,8.0812206 0 1 1 -18.182744,0 9.0913725,8.0812206 0 1 1 18.182744,0 z"
       transform="translate(116.72593,88.619817)" />
    <path
       sodipodi:type="arc"
       style="opacity:0.98999999000000005;color:#000000;fill:#b9bab3;fill-opacity:1;fill-rule:evenodd;stroke:#000000;stroke-width:0.6;marker:none;visibility:visible;display:inline;overflow:visible;enable-background:accumulate;stroke-opacity:1;stroke-miterlimit:4;stroke-dasharray:none"
       id="path2985-1-7-48"
       sodipodi:cx="55"
       sodipodi:cy="215.21933"
       sodipodi:rx="9.0913725"
       sodipodi:ry="8.0812206"
       d="m 64.091372,215.21933 a 9.0913725,8.0812206 0 1 1 -18.182744,0 9.0913725,8.0812206 0 1 1 18.182744,0 z"
       transform="translate(174.30463,92.660427)" />
    <path
       sodipodi:type="arc"
       style="opacity:0.98999999000000005;color:#000000;fill:#79f4da;fill-opacity:1;fill-rule:evenodd;stroke:#000000;stroke-width:0.6;marker:none;visibility:visible;display:inline;overflow:visible;enable-background:accumulate;stroke-opacity:1;stroke-miterlimit:4;stroke-dasharray:none"
       id="path2985-1-7-8"
       sodipodi:cx="55"
       sodipodi:cy="215.21933"
       sodipodi:rx="9.0913725"
       sodipodi:ry="8.0812206"
       d="m 64.091372,215.21933 a 9.0913725,8.0812206 0 1 1 -18.182744,0 9.0913725,8.0812206 0 1 1 18.182744,0 z"
       transform="translate(110.66502,115.89394)" />
    <path
       sodipodi:type="arc"
       style="opacity:0.98999999000000005;color:#000000;fill:#cf9eb5;fill-opacity:1;fill-rule:evenodd;stroke:#000000;stroke-width:0.6;marker:none;visibility:visible;display:inline;overflow:visible;enable-background:accumulate;stroke-opacity:1;stroke-miterlimit:4;stroke-dasharray:none"
       id="path2985-1-7-2"
       sodipodi:cx="55"
       sodipodi:cy="215.21933"
       sodipodi:rx="9.0913725"
       sodipodi:ry="8.0812206"
       d="m 64.091372,215.21933 a 9.0913725,8.0812206 0 1 1 -18.182744,0 9.0913725,8.0812206 0 1 1 18.182744,0 z"
       transform="translate(87.431512,113.87363)" />
    <path
       sodipodi:type="arc"
       style="opacity:0.98999999000000005;color:#000000;fill:#cda0b2;fill-opacity:1;fill-rule:evenodd;stroke:#000000;stroke-width:0.6;marker:none;visibility:visible;display:inline;overflow:visible;enable-background:accumulate;stroke-opacity:1;stroke-miterlimit:4;stroke-dasharray:none"
       id="path2985-1-7-45"
       sodipodi:cx="55"
       sodipodi:cy="215.21933"
       sodipodi:rx="9.0913725"
       sodipodi:ry="8.0812206"
       d="m 64.091372,215.21933 a 9.0913725,8.0812206 0 1 1 -18.182744,0 9.0913725,8.0812206 0 1 1 18.182744,0 z"
       transform="translate(166.22341,136.09699)" />
    <path
       sodipodi:type="arc"
       style="opacity:0.98999999000000005;color:#000000;fill:#b3bab8;fill-opacity:1;fill-rule:evenodd;stroke:#000000;stroke-width:0.6;marker:none;visibility:visible;display:inline;overflow:visible;enable-background:accumulate;stroke-opacity:1;stroke-miterlimit:4;stroke-dasharray:none"
       id="path2985-1-7-5"
       sodipodi:cx="55"
       sodipodi:cy="215.21933"
       sodipodi:rx="9.0913725"
       sodipodi:ry="8.0812206"
       d="m 64.091372,215.21933 a 9.0913725,8.0812206 0 1 1 -18.182744,0 9.0913725,8.0812206 0 1 1 18.182744,0 z"
       transform="translate(183.396,120.9447)" />
    <path
       sodipodi:type="arc"
       style="opacity:0.98999999000000005;color:#000000;fill:#e7f27b;fill-opacity:1;fill-rule:evenodd;stroke:#000000;stroke-width:0.6;marker:none;visibility:visible;display:inline;overflow:visible;enable-background:accumulate;stroke-opacity:1;stroke-miterlimit:4;stroke-dasharray:none"
       id="path2985-1-7-1"
       sodipodi:cx="55"
       sodipodi:cy="215.21933"
       sodipodi:rx="9.0913725"
       sodipodi:ry="8.0812206"
       d="m 64.091372,215.21933 a 9.0913725,8.0812206 0 1 1 -18.182744,0 9.0913725,8.0812206 0 1 1 18.182744,0 z"
       transform="translate(191.47722,60.335545)" />
    <path
       sodipodi:type="arc"
       style="opacity:0.98999999000000005;color:#000000;fill:#73fa8b;fill-opacity:1;fill-rule:evenodd;stroke:#000000;stroke-width:0.6;marker:none;visibility:visible;display:inline;overflow:visible;enable-background:accumulate;stroke-opacity:1;stroke-miterlimit:4;stroke-dasharray:none"
       id="path2985-1-7-7"
       sodipodi:cx="55"
       sodipodi:cy="215.21933"
       sodipodi:rx="9.0913725"
       sodipodi:ry="8.0812206"
       d="m 64.091372,215.21933 a 9.0913725,8.0812206 0 1 1 -18.182744,0 9.0913725,8.0812206 0 1 1 18.182744,0 z"
       transform="translate(181.3757,5.787308)" />
    <path
       sodipodi:type="arc"
       style="opacity:0.98999999000000005;color:#000000;fill:#7e91ef;fill-opacity:1;fill-rule:evenodd;stroke:#000000;stroke-width:0.6;marker:none;visibility:visible;display:inline;overflow:visible;enable-background:accumulate;stroke-opacity:1;stroke-miterlimit:4;stroke-dasharray:none"
       id="path2985-1-7-11"
       sodipodi:cx="55"
       sodipodi:cy="215.21933"
       sodipodi:rx="9.0913725"
       sodipodi:ry="8.0812206"
       d="m 64.091372,215.21933 a 9.0913725,8.0812206 0 1 1 -18.182744,0 9.0913725,8.0812206 0 1 1 18.182744,0 z"
       transform="translate(104.6041,-21.486811)" />
    <path
       sodipodi:type="arc"
       style="opacity:0.98999999000000005;color:#000000;fill:#d19cb5;fill-opacity:1;fill-rule:evenodd;stroke:#000000;stroke-width:0.6;marker:none;visibility:visible;display:inline;overflow:visible;enable-background:accumulate;stroke-opacity:1;stroke-miterlimit:4;stroke-dasharray:none"
       id="path2985-1-7-52"
       sodipodi:cx="55"
       sodipodi:cy="215.21933"
       sodipodi:rx="9.0913725"
       sodipodi:ry="8.0812206"
       d="m 64.091372,215.21933 a 9.0913725,8.0812206 0 1 1 -18.182744,0 9.0913725,8.0812206 0 1 1 18.182744,0 z"
       transform="translate(58.137085,5.787308)" />
    <path
       sodipodi:type="arc"
       style="opacity:0.98999999000000005;color:#000000;fill:#97fa73;fill-opacity:1;fill-rule:evenodd;stroke:#000000;stroke-width:0.6;marker:none;visibility:visible;display:inline;overflow:visible;enable-background:accumulate;stroke-opacity:1;stroke-miterlimit:4;stroke-dasharray:none"
       id="path2985-1-7-76"
       sodipodi:cx="55"
       sodipodi:cy="215.21933"
       sodipodi:rx="9.0913725"
       sodipodi:ry="8.0812206"
       d="m 64.091372,215.21933 a 9.0913725,8.0812206 0 1 1 -18.182744,0 9.0913725,8.0812206 0 1 1 18.182744,0 z"
       transform="translate(35.913729,60.335545)" />
    <path
       sodipodi:type="arc"
       style="opacity:0.98999999000000005;color:#000000;fill:#849ae9;fill-opacity:1;fill-rule:evenodd;stroke:#000000;stroke-width:0.6;stroke-opacity:1;marker:none;visibility:visible;display:inline;overflow:visible;enable-background:accumulate;stroke-miterlimit:4;stroke-dasharray:none"
       id="path2985-1-7-45-4"
       sodipodi:cx="55"
       sodipodi:cy="215.21933"
       sodipodi:rx="9.0913725"
       sodipodi:ry="8.0812206"
       d="m 64.091372,215.21933 a 9.0913725,8.0812206 0 1 1 -18.182744,0 9.0913725,8.0812206 0 1 1 18.182744,0 z"
       transform="translate(77.329983,142.1579)" />
    <path
       sodipodi:type="arc"
       style="opacity:0.98999999000000005;color:#000000;fill:#e68791;fill-opacity:1;fill-rule:evenodd;stroke:#000000;stroke-width:0.6;stroke-opacity:1;marker:none;visibility:visible;display:inline;overflow:visible;enable-background:accumulate;stroke-miterlimit:4;stroke-dasharray:none"
       id="path2985-1-7-45-2"
       sodipodi:cx="55"
       sodipodi:cy="215.21933"
       sodipodi:rx="9.0913725"
       sodipodi:ry="8.0812206"
       d="m 64.091372,215.21933 a 9.0913725,8.0812206 0 1 1 -18.182744,0 9.0913725,8.0812206 0 1 1 18.182744,0 z"
       transform="translate(55.106627,118.92439)" />
    <path
       sodipodi:type="arc"
       style="opacity:0.98999999000000005;color:#000000;fill:#ab97d6;fill-opacity:1;fill-rule:evenodd;stroke:#000000;stroke-width:0.6;stroke-opacity:1;marker:none;visibility:visible;display:inline;overflow:visible;enable-background:accumulate;stroke-miterlimit:4;stroke-dasharray:none"
       id="path2985-1-7-45-3"
       sodipodi:cx="55"
       sodipodi:cy="215.21933"
       sodipodi:rx="9.0913725"
       sodipodi:ry="8.0812206"
       d="m 64.091372,215.21933 a 9.0913725,8.0812206 0 1 1 -18.182744,0 9.0913725,8.0812206 0 1 1 18.182744,0 z"
       transform="translate(20.761441,139.12744)" />
    <path
       sodipodi:type="arc"
       style="opacity:0.98999999000000005;color:#000000;fill:#dbde8f;fill-opacity:1;fill-rule:evenodd;stroke:#000000;stroke-width:0.6;stroke-opacity:1;marker:none;visibility:visible;display:inline;overflow:visible;enable-background:accumulate;stroke-miterlimit:4;stroke-dasharray:none"
       id="path2985-1-7-45-22"
       sodipodi:cx="55"
       sodipodi:cy="215.21933"
       sodipodi:rx="9.0913725"
       sodipodi:ry="8.0812206"
       d="m 64.091372,215.21933 a 9.0913725,8.0812206 0 1 1 -18.182744,0 9.0913725,8.0812206 0 1 1 18.182744,0 z"
       transform="translate(55.106627,183.57416)" />
    <path
       sodipodi:type="arc"
       style="opacity:0.98999999000000005;color:#000000;fill:#8acfe3;fill-opacity:1;fill-rule:evenodd;stroke:#000000;stroke-width:0.6;stroke-opacity:1;marker:none;visibility:visible;display:inline;overflow:visible;enable-background:accumulate;stroke-miterlimit:4;stroke-dasharray:none"
       id="path2985-1-7-45-16"
       sodipodi:cx="55"
       sodipodi:cy="215.21933"
       sodipodi:rx="9.0913725"
       sodipodi:ry="8.0812206"
       d="m 64.091372,215.21933 a 9.0913725,8.0812206 0 1 1 -18.182744,0 9.0913725,8.0812206 0 1 1 18.182744,0 z"
       transform="translate(75.309678,191.65538)" />
    <path
       sodipodi:type="arc"
       style="opacity:0.98999999000000005;color:#000000;fill:#b9b4b5;fill-opacity:1;fill-rule:evenodd;stroke:#000000;stroke-width:0.6;stroke-opacity:1;marker:none;visibility:visible;display:inline;overflow:visible;enable-background:accumulate;stroke-miterlimit:4;stroke-dasharray:none"
       id="path2985-1-7-45-8"
       sodipodi:cx="55"
       sodipodi:cy="215.21933"
       sodipodi:rx="9.0913725"
       sodipodi:ry="8.0812206"
       d="m 64.091372,215.21933 a 9.0913725,8.0812206 0 1 1 -18.182744,0 9.0913725,8.0812206 0 1 1 18.182744,0 z"
       transform="translate(87.431509,191.65538)" />
    <path
       sodipodi:type="arc"
       style="opacity:0.98999999000000005;color:#000000;fill:#9bd2b2;fill-opacity:1;fill-rule:evenodd;stroke:#000000;stroke-width:0.6;stroke-opacity:1;marker:none;visibility:visible;display:inline;overflow:visible;enable-background:accumulate;stroke-miterlimit:4;stroke-dasharray:none"
       id="path2985-1-7-45-5"
       sodipodi:cx="55"
       sodipodi:cy="215.21933"
       sodipodi:rx="9.0913725"
       sodipodi:ry="8.0812206"
       d="m 64.091372,215.21933 a 9.0913725,8.0812206 0 1 1 -18.182744,0 9.0913725,8.0812206 0 1 1 18.182744,0 z"
       transform="translate(127.83761,172.46248)" />
    <path
       sodipodi:type="arc"
       style="opacity:0.98999999000000005;color:#000000;fill:#b5c1ac;fill-opacity:1;fill-rule:evenodd;stroke:#000000;stroke-width:0.6;stroke-opacity:1;marker:none;visibility:visible;display:inline;overflow:visible;enable-background:accumulate;stroke-miterlimit:4;stroke-dasharray:none"
       id="path2985-1-7-45-7"
       sodipodi:cx="55"
       sodipodi:cy="215.21933"
       sodipodi:rx="9.0913725"
       sodipodi:ry="8.0812206"
       d="m 64.091372,215.21933 a 9.0913725,8.0812206 0 1 1 -18.182744,0 9.0913725,8.0812206 0 1 1 18.182744,0 z"
       transform="translate(153.09142,190.64522)" />
    <path
       sodipodi:type="arc"
       style="opacity:0.98999999000000005;color:#000000;fill:#db92cb;fill-opacity:1;fill-rule:evenodd;stroke:#000000;stroke-width:0.6;stroke-opacity:1;marker:none;visibility:visible;display:inline;overflow:visible;enable-background:accumulate;stroke-miterlimit:4;stroke-dasharray:none"
       id="path2985-1-7-45-6"
       sodipodi:cx="55"
       sodipodi:cy="215.21933"
       sodipodi:rx="9.0913725"
       sodipodi:ry="8.0812206"
       d="m 64.091372,215.21933 a 9.0913725,8.0812206 0 1 1 -18.182744,0 9.0913725,8.0812206 0 1 1 18.182744,0 z"
       transform="translate(155.11173,217.91934)" />
    <path
       sodipodi:type="arc"
       style="opacity:0.98999999000000005;color:#000000;fill:#ceb49f;fill-opacity:1;fill-rule:evenodd;stroke:#000000;stroke-width:0.6;stroke-opacity:1;marker:none;visibility:visible;display:inline;overflow:visible;enable-background:accumulate;stroke-miterlimit:4;stroke-dasharray:none"
       id="path2985-1-7-45-18"
       sodipodi:cx="55"
       sodipodi:cy="215.21933"
       sodipodi:rx="9.0913725"
       sodipodi:ry="8.0812206"
       d="m 64.091372,215.21933 a 9.0913725,8.0812206 0 1 1 -18.182744,0 9.0913725,8.0812206 0 1 1 18.182744,0 z"
       transform="translate(211.68027,209.83812)" />
    <path
       sodipodi:type="arc"
       style="opacity:0.98999999000000005;color:#000000;fill:#b2bbb4;fill-opacity:1;fill-rule:evenodd;stroke:#000000;stroke-width:0.6;stroke-opacity:1;marker:none;visibility:visible;display:inline;overflow:visible;enable-background:accumulate;stroke-miterlimit:4;stroke-dasharray:none"
       id="path2985-1-7-45-9"
       sodipodi:cx="55"
       sodipodi:cy="215.21933"
       sodipodi:rx="9.0913725"
       sodipodi:ry="8.0812206"
       d="m 64.091372,215.21933 a 9.0913725,8.0812206 0 1 1 -18.182744,0 9.0913725,8.0812206 0 1 1 18.182744,0 z"
       transform="translate(178.34524,242.163)" />
    <path
       sodipodi:type="arc"
       style="opacity:0.98999999000000005;color:#000000;fill:#b2b0bd;fill-opacity:1;fill-rule:evenodd;stroke:#000000;stroke-width:0.6;stroke-opacity:1;marker:none;visibility:visible;display:inline;overflow:visible;enable-background:accumulate;stroke-miterlimit:4;stroke-dasharray:none"
       id="path2985-1-7-45-27"
       sodipodi:cx="55"
       sodipodi:cy="215.21933"
       sodipodi:rx="9.0913725"
       sodipodi:ry="8.0812206"
       d="m 64.091372,215.21933 a 9.0913725,8.0812206 0 1 1 -18.182744,0 9.0913725,8.0812206 0 1 1 18.182744,0 z"
       transform="translate(137.93914,249.23407)" />
    <path
       sodipodi:type="arc"
       style="opacity:0.98999999000000005;color:#000000;fill:#b2bcb1;fill-opacity:1;fill-rule:evenodd;stroke:#000000;stroke-width:0.6;stroke-opacity:1;marker:none;visibility:visible;display:inline;overflow:visible;enable-background:accumulate;stroke-miterlimit:4;stroke-dasharray:none"
       id="path2985-1-7-45-95"
       sodipodi:cx="55"
       sodipodi:cy="215.21933"
       sodipodi:rx="9.0913725"
       sodipodi:ry="8.0812206"
       d="m 64.091372,215.21933 a 9.0913725,8.0812206 0 1 1 -18.182744,0 9.0913725,8.0812206 0 1 1 18.182744,0 z"
       transform="translate(61.167543,214.88888)" />
    <path
       sodipodi:type="arc"
       style="opacity:0.98999999000000005;color:#000000;fill:#edcf80;fill-opacity:1;fill-rule:evenodd;stroke:#000000;stroke-width:0.6;stroke-opacity:1;marker:none;visibility:visible;display:inline;overflow:visible;enable-background:accumulate;stroke-miterlimit:4;stroke-dasharray:none"
       id="path2985-1-7-45-43"
       sodipodi:cx="55"
       sodipodi:cy="215.21933"
       sodipodi:rx="9.0913725"
       sodipodi:ry="8.0812206"
       d="m 64.091372,215.21933 a 9.0913725,8.0812206 0 1 1 -18.182744,0 9.0913725,8.0812206 0 1 1 18.182744,0 z"
       transform="translate(50.055865,239.13255)" />
    <path
       sodipodi:type="arc"
       style="opacity:0.98999999000000005;color:#000000;fill:#df77f6;fill-opacity:1;fill-rule:evenodd;stroke:#000000;stroke-width:0.6;stroke-opacity:1;marker:none;visibility:visible;display:inline;overflow:visible;enable-background:accumulate;stroke-miterlimit:4;stroke-dasharray:none"
       id="path2985-1-7-45-12"
       sodipodi:cx="55"
       sodipodi:cy="215.21933"
       sodipodi:rx="9.0913725"
       sodipodi:ry="8.0812206"
       d="m 64.091372,215.21933 a 9.0913725,8.0812206 0 1 1 -18.182744,0 9.0913725,8.0812206 0 1 1 18.182744,0 z"
       transform="translate(85.411204,258.32544)" />
    <path
       sodipodi:type="arc"
       style="opacity:0.98999999000000005;color:#000000;fill:#bdb0b0;fill-opacity:1;fill-rule:evenodd;stroke:#000000;stroke-width:0.6;stroke-opacity:1;marker:none;visibility:visible;display:inline;overflow:visible;enable-background:accumulate;stroke-miterlimit:4;stroke-dasharray:none"
       id="path2985-1-7-45-33"
       sodipodi:cx="55"
       sodipodi:cy="215.21933"
       sodipodi:rx="9.0913725"
       sodipodi:ry="8.0812206"
       d="m 64.091372,215.21933 a 9.0913725,8.0812206 0 1 1 -18.182744,0 9.0913725,8.0812206 0 1 1 18.182744,0 z"
       transform="translate(114.70563,275.49804)" />
    <path
       sodipodi:type="arc"
       style="opacity:0.98999999000000005;color:#000000;fill:#c0c7a6;fill-opacity:1;fill-rule:evenodd;stroke:#000000;stroke-width:0.6;stroke-opacity:1;marker:none;visibility:visible;display:inline;overflow:visible;enable-background:accumulate;stroke-miterlimit:4;stroke-dasharray:none"
       id="path2985-1-7-45-41"
       sodipodi:cx="55"
       sodipodi:cy="215.21933"
       sodipodi:rx="9.0913725"
       sodipodi:ry="8.0812206"
       d="m 64.091372,215.21933 a 9.0913725,8.0812206 0 1 1 -18.182744,0 9.0913725,8.0812206 0 1 1 18.182744,0 z"
       transform="translate(85.411204,300.75185)" />
    <path
       sodipodi:type="arc"
       style="opacity:0.98999999000000005;color:#000000;fill:#e687b4;fill-opacity:1;fill-rule:evenodd;stroke:#000000;stroke-width:0.6;stroke-opacity:1;marker:none;visibility:visible;display:inline;overflow:visible;enable-background:accumulate;stroke-miterlimit:4;stroke-dasharray:none"
       id="path2985-1-7-45-13"
       sodipodi:cx="55"
       sodipodi:cy="215.21933"
       sodipodi:rx="9.0913725"
       sodipodi:ry="8.0812206"
       d="m 64.091372,215.21933 a 9.0913725,8.0812206 0 1 1 -18.182744,0 9.0913725,8.0812206 0 1 1 18.182744,0 z"
       transform="translate(55.106627,280.5488)" />
    <path
       sodipodi:type="arc"
       style="opacity:0.98999999000000005;color:#000000;fill:#fa73a1;fill-opacity:1;fill-rule:evenodd;stroke:#000000;stroke-width:0.6;stroke-opacity:1;marker:none;visibility:visible;display:inline;overflow:visible;enable-background:accumulate;stroke-miterlimit:4;stroke-dasharray:none"
       id="path2985-1-7-45-87"
       sodipodi:cx="55"
       sodipodi:cy="215.21933"
       sodipodi:rx="9.0913725"
       sodipodi:ry="8.0812206"
       d="m 64.091372,215.21933 a 9.0913725,8.0812206 0 1 1 -18.182744,0 9.0913725,8.0812206 0 1 1 18.182744,0 z"
       transform="translate(166.22341,282.56911)" />
    <path
       sodipodi:type="arc"
       style="opacity:0.98999999000000005;color:#000000;fill:#b5b9b4;fill-opacity:1;fill-rule:evenodd;stroke:#000000;stroke-width:0.6;stroke-opacity:1;marker:none;visibility:visible;display:inline;overflow:visible;enable-background:accumulate;stroke-miterlimit:4;stroke-dasharray:none"
       id="path2985-1-7-45-42"
       sodipodi:cx="55"
       sodipodi:cy="215.21933"
       sodipodi:rx="9.0913725"
       sodipodi:ry="8.0812206"
       d="m 64.091372,215.21933 a 9.0913725,8.0812206 0 1 1 -18.182744,0 9.0913725,8.0812206 0 1 1 18.182744,0 z"
       transform="translate(177.33509,293.68078)" />
    <path
       sodipodi:type="arc"
       style="opacity:0.98999999000000005;color:#000000;fill:#8b7f13;fill-opacity:1;fill-rule:evenodd;stroke:#000000;stroke-width:0.60000001999999997;stroke-miterlimit:4;stroke-opacity:1;stroke-dasharray:none;marker:none;visibility:visible;display:inline;overflow:visible;enable-background:accumulate"
       id="path2985-7"
       sodipodi:cx="55"
       sodipodi:cy="215.21933"
       sodipodi:rx="9.0913725"
       sodipodi:ry="8.0812206"
       d="m 64.091372,215.21933 a 9.0913725,8.0812206 0 1 1 -18.182744,0 9.0913725,8.0812206 0 1 1 18.182744,0 z"
       transform="translate(356.07877,48.992402)" />
    <path
       sodipodi:type="arc"
       style="opacity:0.98999999000000005;color:#000000;fill:#8b7f13;fill-opacity:1;fill-rule:evenodd;stroke:#000000;stroke-width:0.60000001999999997;stroke-miterlimit:4;stroke-opacity:1;stroke-dasharray:none;marker:none;visibility:visible;display:inline;overflow:visible;enable-background:accumulate"
       id="path2985-1-79"
       sodipodi:cx="55"
       sodipodi:cy="215.21933"
       sodipodi:rx="9.0913725"
       sodipodi:ry="8.0812206"
       d="m 64.091372,215.21933 a 9.0913725,8.0812206 0 1 1 -18.182744,0 9.0913725,8.0812206 0 1 1 18.182744,0 z"
       transform="translate(412.19555,18.414222)" />
    <path
       sodipodi:type="arc"
       style="opacity:0.98999999000000005;color:#000000;fill:#8b7f13;fill-opacity:1;fill-rule:evenodd;stroke:#000000;stroke-width:0.60000001999999997;stroke-miterlimit:4;stroke-opacity:1;stroke-dasharray:none;marker:none;visibility:visible;display:inline;overflow:visible;enable-background:accumulate"
       id="path2985-1-7-3"
       sodipodi:cx="55"
       sodipodi:cy="215.21933"
       sodipodi:rx="9.0913725"
       sodipodi:ry="8.0812206"
       d="m 64.091372,215.21933 a 9.0913725,8.0812206 0 1 1 -18.182744,0 9.0913725,8.0812206 0 1 1 18.182744,0 z"
       transform="translate(411.18539,62.860932)" />
    <path
       sodipodi:type="arc"
       style="opacity:0.98999999000000005;color:#000000;fill:#8b7f13;fill-opacity:1;fill-rule:evenodd;stroke:#000000;stroke-width:0.60000001999999997;stroke-miterlimit:4;stroke-opacity:1;stroke-dasharray:none;marker:none;visibility:visible;display:inline;overflow:visible;enable-background:accumulate"
       id="path2985-1-7-4-1"
       sodipodi:cx="55"
       sodipodi:cy="215.21933"
       sodipodi:rx="9.0913725"
       sodipodi:ry="8.0812206"
       d="m 64.091372,215.21933 a 9.0913725,8.0812206 0 1 1 -18.182744,0 9.0913725,8.0812206 0 1 1 18.182744,0 z"
       transform="translate(427.34783,54.779712)" />
    <path
       sodipodi:type="arc"
       style="opacity:0.98999999000000005;color:#000000;fill:#8b7f13;fill-opacity:1;fill-rule:evenodd;stroke:#000000;stroke-width:0.60000001999999997;stroke-miterlimit:4;stroke-opacity:1;stroke-dasharray:none;marker:none;visibility:visible;display:inline;overflow:visible;enable-background:accumulate"
       id="path2985-1-7-0-9"
       sodipodi:cx="55"
       sodipodi:cy="215.21933"
       sodipodi:rx="9.0913725"
       sodipodi:ry="8.0812206"
       d="m 64.091372,215.21933 a 9.0913725,8.0812206 0 1 1 -18.182744,0 9.0913725,8.0812206 0 1 1 18.182744,0 z"
       transform="translate(368.759,79.023372)" />
    <path
       sodipodi:type="arc"
       style="opacity:0.98999999000000005;color:#000000;fill:#8b7f13;fill-opacity:1;fill-rule:evenodd;stroke:#000000;stroke-width:0.60000001999999997;stroke-miterlimit:4;stroke-opacity:1;stroke-dasharray:none;marker:none;visibility:visible;display:inline;overflow:visible;enable-background:accumulate"
       id="path2985-1-7-9-8"
       sodipodi:cx="55"
       sodipodi:cy="215.21933"
       sodipodi:rx="9.0913725"
       sodipodi:ry="8.0812206"
       d="m 64.091372,215.21933 a 9.0913725,8.0812206 0 1 1 -18.182744,0 9.0913725,8.0812206 0 1 1 18.182744,0 z"
       transform="translate(403.10417,91.145201)" />
    <path
       sodipodi:type="arc"
       style="opacity:0.98999999000000005;color:#000000;fill:#8b7f13;fill-opacity:1;fill-rule:evenodd;stroke:#000000;stroke-width:0.60000001999999997;stroke-miterlimit:4;stroke-opacity:1;stroke-dasharray:none;marker:none;visibility:visible;display:inline;overflow:visible;enable-background:accumulate"
       id="path2985-1-7-48-6"
       sodipodi:cx="55"
       sodipodi:cy="215.21933"
       sodipodi:rx="9.0913725"
       sodipodi:ry="8.0812206"
       d="m 64.091372,215.21933 a 9.0913725,8.0812206 0 1 1 -18.182744,0 9.0913725,8.0812206 0 1 1 18.182744,0 z"
       transform="translate(460.68287,95.18581)" />
    <path
       sodipodi:type="arc"
       style="opacity:0.98999999000000005;color:#000000;fill:#8b7f13;fill-opacity:1;fill-rule:evenodd;stroke:#000000;stroke-width:0.60000001999999997;stroke-miterlimit:4;stroke-opacity:1;stroke-dasharray:none;marker:none;visibility:visible;display:inline;overflow:visible;enable-background:accumulate"
       id="path2985-1-7-8-5"
       sodipodi:cx="55"
       sodipodi:cy="215.21933"
       sodipodi:rx="9.0913725"
       sodipodi:ry="8.0812206"
       d="m 64.091372,215.21933 a 9.0913725,8.0812206 0 1 1 -18.182744,0 9.0913725,8.0812206 0 1 1 18.182744,0 z"
       transform="translate(397.04327,118.41932)" />
    <path
       sodipodi:type="arc"
       style="opacity:0.98999999000000005;color:#000000;fill:#8b7f13;fill-opacity:1;fill-rule:evenodd;stroke:#000000;stroke-width:0.60000001999999997;stroke-miterlimit:4;stroke-opacity:1;stroke-dasharray:none;marker:none;visibility:visible;display:inline;overflow:visible;enable-background:accumulate"
       id="path2985-1-7-2-0"
       sodipodi:cx="55"
       sodipodi:cy="215.21933"
       sodipodi:rx="9.0913725"
       sodipodi:ry="8.0812206"
       d="m 64.091372,215.21933 a 9.0913725,8.0812206 0 1 1 -18.182744,0 9.0913725,8.0812206 0 1 1 18.182744,0 z"
       transform="translate(373.80976,116.39901)" />
    <path
       sodipodi:type="arc"
       style="opacity:0.98999999000000005;color:#000000;fill:#8b7f13;fill-opacity:1;fill-rule:evenodd;stroke:#000000;stroke-width:0.60000001999999997;stroke-miterlimit:4;stroke-opacity:1;stroke-dasharray:none;marker:none;visibility:visible;display:inline;overflow:visible;enable-background:accumulate"
       id="path2985-1-7-45-28"
       sodipodi:cx="55"
       sodipodi:cy="215.21933"
       sodipodi:rx="9.0913725"
       sodipodi:ry="8.0812206"
       d="m 64.091372,215.21933 a 9.0913725,8.0812206 0 1 1 -18.182744,0 9.0913725,8.0812206 0 1 1 18.182744,0 z"
       transform="translate(452.60165,138.62237)" />
    <path
       sodipodi:type="arc"
       style="opacity:0.98999999000000005;color:#000000;fill:#8b7f13;fill-opacity:1;fill-rule:evenodd;stroke:#000000;stroke-width:0.60000001999999997;stroke-miterlimit:4;stroke-opacity:1;stroke-dasharray:none;marker:none;visibility:visible;display:inline;overflow:visible;enable-background:accumulate"
       id="path2985-1-7-5-6"
       sodipodi:cx="55"
       sodipodi:cy="215.21933"
       sodipodi:rx="9.0913725"
       sodipodi:ry="8.0812206"
       d="m 64.091372,215.21933 a 9.0913725,8.0812206 0 1 1 -18.182744,0 9.0913725,8.0812206 0 1 1 18.182744,0 z"
       transform="translate(469.77424,123.47008)" />
    <path
       sodipodi:type="arc"
       style="opacity:0.98999999000000005;color:#000000;fill:#8b7f13;fill-opacity:1;fill-rule:evenodd;stroke:#000000;stroke-width:0.60000001999999997;stroke-miterlimit:4;stroke-opacity:1;stroke-dasharray:none;marker:none;visibility:visible;display:inline;overflow:visible;enable-background:accumulate"
       id="path2985-1-7-1-0"
       sodipodi:cx="55"
       sodipodi:cy="215.21933"
       sodipodi:rx="9.0913725"
       sodipodi:ry="8.0812206"
       d="m 64.091372,215.21933 a 9.0913725,8.0812206 0 1 1 -18.182744,0 9.0913725,8.0812206 0 1 1 18.182744,0 z"
       transform="translate(477.85546,62.860932)" />
    <path
       sodipodi:type="arc"
       style="opacity:0.98999999000000005;color:#000000;fill:#8b7f13;fill-opacity:1;fill-rule:evenodd;stroke:#000000;stroke-width:0.60000001999999997;stroke-miterlimit:4;stroke-opacity:1;stroke-dasharray:none;marker:none;visibility:visible;display:inline;overflow:visible;enable-background:accumulate"
       id="path2985-1-7-7-2"
       sodipodi:cx="55"
       sodipodi:cy="215.21933"
       sodipodi:rx="9.0913725"
       sodipodi:ry="8.0812206"
       d="m 64.091372,215.21933 a 9.0913725,8.0812206 0 1 1 -18.182744,0 9.0913725,8.0812206 0 1 1 18.182744,0 z"
       transform="translate(467.75394,8.3126916)" />
    <path
       sodipodi:type="arc"
       style="opacity:0.98999999000000005;color:#000000;fill:#8b7f13;fill-opacity:1;fill-rule:evenodd;stroke:#000000;stroke-width:0.60000001999999997;stroke-miterlimit:4;stroke-opacity:1;stroke-dasharray:none;marker:none;visibility:visible;display:inline;overflow:visible;enable-background:accumulate"
       id="path2985-1-7-11-4"
       sodipodi:cx="55"
       sodipodi:cy="215.21933"
       sodipodi:rx="9.0913725"
       sodipodi:ry="8.0812206"
       d="m 64.091372,215.21933 a 9.0913725,8.0812206 0 1 1 -18.182744,0 9.0913725,8.0812206 0 1 1 18.182744,0 z"
       transform="translate(390.98235,-18.961428)" />
    <path
       sodipodi:type="arc"
       style="opacity:0.98999999000000005;color:#000000;fill:#8b7f13;fill-opacity:1;fill-rule:evenodd;stroke:#000000;stroke-width:0.60000001999999997;stroke-miterlimit:4;stroke-opacity:1;stroke-dasharray:none;marker:none;visibility:visible;display:inline;overflow:visible;enable-background:accumulate"
       id="path2985-1-7-52-8"
       sodipodi:cx="55"
       sodipodi:cy="215.21933"
       sodipodi:rx="9.0913725"
       sodipodi:ry="8.0812206"
       d="m 64.091372,215.21933 a 9.0913725,8.0812206 0 1 1 -18.182744,0 9.0913725,8.0812206 0 1 1 18.182744,0 z"
       transform="translate(344.51533,8.3126916)" />
    <path
       sodipodi:type="arc"
       style="opacity:0.98999999000000005;color:#000000;fill:#8b7f13;fill-opacity:1;fill-rule:evenodd;stroke:#000000;stroke-width:0.60000001999999997;stroke-miterlimit:4;stroke-opacity:1;stroke-dasharray:none;marker:none;visibility:visible;display:inline;overflow:visible;enable-background:accumulate"
       id="path2985-1-7-76-6"
       sodipodi:cx="55"
       sodipodi:cy="215.21933"
       sodipodi:rx="9.0913725"
       sodipodi:ry="8.0812206"
       d="m 64.091372,215.21933 a 9.0913725,8.0812206 0 1 1 -18.182744,0 9.0913725,8.0812206 0 1 1 18.182744,0 z"
       transform="translate(322.29198,62.860932)" />
    <path
       sodipodi:type="arc"
       style="opacity:0.98999999000000005;color:#000000;fill:#8b7f13;fill-opacity:1;fill-rule:evenodd;stroke:#000000;stroke-width:0.60000001999999997;stroke-miterlimit:4;stroke-opacity:1;stroke-dasharray:none;marker:none;visibility:visible;display:inline;overflow:visible;enable-background:accumulate"
       id="path2985-1-7-45-4-0"
       sodipodi:cx="55"
       sodipodi:cy="215.21933"
       sodipodi:rx="9.0913725"
       sodipodi:ry="8.0812206"
       d="m 64.091372,215.21933 a 9.0913725,8.0812206 0 1 1 -18.182744,0 9.0913725,8.0812206 0 1 1 18.182744,0 z"
       transform="translate(363.70823,144.68328)" />
    <path
       sodipodi:type="arc"
       style="opacity:0.98999999000000005;color:#000000;fill:#8b7f13;fill-opacity:1;fill-rule:evenodd;stroke:#000000;stroke-width:0.60000001999999997;stroke-miterlimit:4;stroke-opacity:1;stroke-dasharray:none;marker:none;visibility:visible;display:inline;overflow:visible;enable-background:accumulate"
       id="path2985-1-7-45-2-9"
       sodipodi:cx="55"
       sodipodi:cy="215.21933"
       sodipodi:rx="9.0913725"
       sodipodi:ry="8.0812206"
       d="m 64.091372,215.21933 a 9.0913725,8.0812206 0 1 1 -18.182744,0 9.0913725,8.0812206 0 1 1 18.182744,0 z"
       transform="translate(341.48488,121.44977)" />
    <path
       sodipodi:type="arc"
       style="opacity:0.98999999000000005;color:#000000;fill:#8b7f13;fill-opacity:1;fill-rule:evenodd;stroke:#000000;stroke-width:0.60000001999999997;stroke-miterlimit:4;stroke-opacity:1;stroke-dasharray:none;marker:none;visibility:visible;display:inline;overflow:visible;enable-background:accumulate"
       id="path2985-1-7-45-3-0"
       sodipodi:cx="55"
       sodipodi:cy="215.21933"
       sodipodi:rx="9.0913725"
       sodipodi:ry="8.0812206"
       d="m 64.091372,215.21933 a 9.0913725,8.0812206 0 1 1 -18.182744,0 9.0913725,8.0812206 0 1 1 18.182744,0 z"
       transform="translate(307.13969,141.65282)" />
    <path
       sodipodi:type="arc"
       style="opacity:0.98999999000000005;color:#000000;fill:#b54856;fill-opacity:1;fill-rule:evenodd;stroke:#000000;stroke-width:0.60000001999999997;stroke-miterlimit:4;stroke-opacity:1;stroke-dasharray:none;marker:none;visibility:visible;display:inline;overflow:visible;enable-background:accumulate"
       id="path2985-1-7-45-22-0"
       sodipodi:cx="55"
       sodipodi:cy="215.21933"
       sodipodi:rx="9.0913725"
       sodipodi:ry="8.0812206"
       d="m 64.091372,215.21933 a 9.0913725,8.0812206 0 1 1 -18.182744,0 9.0913725,8.0812206 0 1 1 18.182744,0 z"
       transform="translate(341.48488,186.09954)" />
    <path
       sodipodi:type="arc"
       style="opacity:0.98999999000000005;color:#000000;fill:#b54856;fill-opacity:1;fill-rule:evenodd;stroke:#000000;stroke-width:0.60000001999999997;stroke-miterlimit:4;stroke-opacity:1;stroke-dasharray:none;marker:none;visibility:visible;display:inline;overflow:visible;enable-background:accumulate"
       id="path2985-1-7-45-16-6"
       sodipodi:cx="55"
       sodipodi:cy="215.21933"
       sodipodi:rx="9.0913725"
       sodipodi:ry="8.0812206"
       d="m 64.091372,215.21933 a 9.0913725,8.0812206 0 1 1 -18.182744,0 9.0913725,8.0812206 0 1 1 18.182744,0 z"
       transform="translate(361.68793,194.18076)" />
    <path
       sodipodi:type="arc"
       style="opacity:0.98999999000000005;color:#000000;fill:#b54856;fill-opacity:1;fill-rule:evenodd;stroke:#000000;stroke-width:0.60000001999999997;stroke-miterlimit:4;stroke-opacity:1;stroke-dasharray:none;marker:none;visibility:visible;display:inline;overflow:visible;enable-background:accumulate"
       id="path2985-1-7-45-8-1"
       sodipodi:cx="55"
       sodipodi:cy="215.21933"
       sodipodi:rx="9.0913725"
       sodipodi:ry="8.0812206"
       d="m 64.091372,215.21933 a 9.0913725,8.0812206 0 1 1 -18.182744,0 9.0913725,8.0812206 0 1 1 18.182744,0 z"
       transform="translate(373.80976,194.18076)" />
    <path
       sodipodi:type="arc"
       style="opacity:0.98999999000000005;color:#000000;fill:#b54856;fill-opacity:1;fill-rule:evenodd;stroke:#000000;stroke-width:0.60000001999999997;stroke-miterlimit:4;stroke-opacity:1;stroke-dasharray:none;marker:none;visibility:visible;display:inline;overflow:visible;enable-background:accumulate"
       id="path2985-1-7-45-5-3"
       sodipodi:cx="55"
       sodipodi:cy="215.21933"
       sodipodi:rx="9.0913725"
       sodipodi:ry="8.0812206"
       d="m 64.091372,215.21933 a 9.0913725,8.0812206 0 1 1 -18.182744,0 9.0913725,8.0812206 0 1 1 18.182744,0 z"
       transform="translate(414.21585,174.98786)" />
    <path
       sodipodi:type="arc"
       style="opacity:0.98999999000000005;color:#000000;fill:#b54856;fill-opacity:1;fill-rule:evenodd;stroke:#000000;stroke-width:0.60000001999999997;stroke-miterlimit:4;stroke-opacity:1;stroke-dasharray:none;marker:none;visibility:visible;display:inline;overflow:visible;enable-background:accumulate"
       id="path2985-1-7-45-7-8"
       sodipodi:cx="55"
       sodipodi:cy="215.21933"
       sodipodi:rx="9.0913725"
       sodipodi:ry="8.0812206"
       d="m 64.091372,215.21933 a 9.0913725,8.0812206 0 1 1 -18.182744,0 9.0913725,8.0812206 0 1 1 18.182744,0 z"
       transform="translate(439.46966,193.1706)" />
    <path
       sodipodi:type="arc"
       style="opacity:0.98999999000000005;color:#000000;fill:#b54856;fill-opacity:1;fill-rule:evenodd;stroke:#000000;stroke-width:0.60000001999999997;stroke-miterlimit:4;stroke-opacity:1;stroke-dasharray:none;marker:none;visibility:visible;display:inline;overflow:visible;enable-background:accumulate"
       id="path2985-1-7-45-6-9"
       sodipodi:cx="55"
       sodipodi:cy="215.21933"
       sodipodi:rx="9.0913725"
       sodipodi:ry="8.0812206"
       d="m 64.091372,215.21933 a 9.0913725,8.0812206 0 1 1 -18.182744,0 9.0913725,8.0812206 0 1 1 18.182744,0 z"
       transform="translate(441.48997,220.44472)" />
    <path
       sodipodi:type="arc"
       style="opacity:0.98999999000000005;color:#000000;fill:#b54856;fill-opacity:1;fill-rule:evenodd;stroke:#000000;stroke-width:0.60000001999999997;stroke-miterlimit:4;stroke-opacity:1;stroke-dasharray:none;marker:none;visibility:visible;display:inline;overflow:visible;enable-background:accumulate"
       id="path2985-1-7-45-18-3"
       sodipodi:cx="55"
       sodipodi:cy="215.21933"
       sodipodi:rx="9.0913725"
       sodipodi:ry="8.0812206"
       d="m 64.091372,215.21933 a 9.0913725,8.0812206 0 1 1 -18.182744,0 9.0913725,8.0812206 0 1 1 18.182744,0 z"
       transform="translate(498.05851,212.3635)" />
    <path
       sodipodi:type="arc"
       style="opacity:0.98999999000000005;color:#000000;fill:#b54856;fill-opacity:1;fill-rule:evenodd;stroke:#000000;stroke-width:0.60000001999999997;stroke-miterlimit:4;stroke-opacity:1;stroke-dasharray:none;marker:none;visibility:visible;display:inline;overflow:visible;enable-background:accumulate"
       id="path2985-1-7-45-9-4"
       sodipodi:cx="55"
       sodipodi:cy="215.21933"
       sodipodi:rx="9.0913725"
       sodipodi:ry="8.0812206"
       d="m 64.091372,215.21933 a 9.0913725,8.0812206 0 1 1 -18.182744,0 9.0913725,8.0812206 0 1 1 18.182744,0 z"
       transform="translate(464.72348,244.68838)" />
    <path
       sodipodi:type="arc"
       style="opacity:0.98999999000000005;color:#000000;fill:#b54856;fill-opacity:1;fill-rule:evenodd;stroke:#000000;stroke-width:0.60000001999999997;stroke-miterlimit:4;stroke-opacity:1;stroke-dasharray:none;marker:none;visibility:visible;display:inline;overflow:visible;enable-background:accumulate"
       id="path2985-1-7-45-27-4"
       sodipodi:cx="55"
       sodipodi:cy="215.21933"
       sodipodi:rx="9.0913725"
       sodipodi:ry="8.0812206"
       d="m 64.091372,215.21933 a 9.0913725,8.0812206 0 1 1 -18.182744,0 9.0913725,8.0812206 0 1 1 18.182744,0 z"
       transform="translate(424.31738,251.75945)" />
    <path
       sodipodi:type="arc"
       style="opacity:0.98999999000000005;color:#000000;fill:#b54856;fill-opacity:1;fill-rule:evenodd;stroke:#000000;stroke-width:0.60000001999999997;stroke-miterlimit:4;stroke-opacity:1;stroke-dasharray:none;marker:none;visibility:visible;display:inline;overflow:visible;enable-background:accumulate"
       id="path2985-1-7-45-95-6"
       sodipodi:cx="55"
       sodipodi:cy="215.21933"
       sodipodi:rx="9.0913725"
       sodipodi:ry="8.0812206"
       d="m 64.091372,215.21933 a 9.0913725,8.0812206 0 1 1 -18.182744,0 9.0913725,8.0812206 0 1 1 18.182744,0 z"
       transform="translate(347.54579,217.41426)" />
    <path
       sodipodi:type="arc"
       style="opacity:0.98999999000000005;color:#000000;fill:#b54856;fill-opacity:1;fill-rule:evenodd;stroke:#000000;stroke-width:0.60000001999999997;stroke-miterlimit:4;stroke-opacity:1;stroke-dasharray:none;marker:none;visibility:visible;display:inline;overflow:visible;enable-background:accumulate"
       id="path2985-1-7-45-43-0"
       sodipodi:cx="55"
       sodipodi:cy="215.21933"
       sodipodi:rx="9.0913725"
       sodipodi:ry="8.0812206"
       d="m 64.091372,215.21933 a 9.0913725,8.0812206 0 1 1 -18.182744,0 9.0913725,8.0812206 0 1 1 18.182744,0 z"
       transform="translate(336.43411,241.65793)" />
    <path
       sodipodi:type="arc"
       style="opacity:0.98999999000000005;color:#000000;fill:#b54856;fill-opacity:1;fill-rule:evenodd;stroke:#000000;stroke-width:0.60000001999999997;stroke-miterlimit:4;stroke-opacity:1;stroke-dasharray:none;marker:none;visibility:visible;display:inline;overflow:visible;enable-background:accumulate"
       id="path2985-1-7-45-12-6"
       sodipodi:cx="55"
       sodipodi:cy="215.21933"
       sodipodi:rx="9.0913725"
       sodipodi:ry="8.0812206"
       d="m 64.091372,215.21933 a 9.0913725,8.0812206 0 1 1 -18.182744,0 9.0913725,8.0812206 0 1 1 18.182744,0 z"
       transform="translate(371.78945,260.85082)" />
    <path
       sodipodi:type="arc"
       style="opacity:0.98999999000000005;color:#000000;fill:#b54856;fill-opacity:1;fill-rule:evenodd;stroke:#000000;stroke-width:0.60000001999999997;stroke-miterlimit:4;stroke-opacity:1;stroke-dasharray:none;marker:none;visibility:visible;display:inline;overflow:visible;enable-background:accumulate"
       id="path2985-1-7-45-33-6"
       sodipodi:cx="55"
       sodipodi:cy="215.21933"
       sodipodi:rx="9.0913725"
       sodipodi:ry="8.0812206"
       d="m 64.091372,215.21933 a 9.0913725,8.0812206 0 1 1 -18.182744,0 9.0913725,8.0812206 0 1 1 18.182744,0 z"
       transform="translate(401.08388,278.02342)" />
    <path
       sodipodi:type="arc"
       style="opacity:0.98999999000000005;color:#000000;fill:#b54856;fill-opacity:1;fill-rule:evenodd;stroke:#000000;stroke-width:0.60000001999999997;stroke-miterlimit:4;stroke-opacity:1;stroke-dasharray:none;marker:none;visibility:visible;display:inline;overflow:visible;enable-background:accumulate"
       id="path2985-1-7-45-41-1"
       sodipodi:cx="55"
       sodipodi:cy="215.21933"
       sodipodi:rx="9.0913725"
       sodipodi:ry="8.0812206"
       d="m 64.091372,215.21933 a 9.0913725,8.0812206 0 1 1 -18.182744,0 9.0913725,8.0812206 0 1 1 18.182744,0 z"
       transform="translate(371.78945,303.27723)" />
    <path
       sodipodi:type="arc"
       style="opacity:0.98999999000000005;color:#000000;fill:#b54856;fill-opacity:1;fill-rule:evenodd;stroke:#000000;stroke-width:0.60000001999999997;stroke-miterlimit:4;stroke-opacity:1;stroke-dasharray:none;marker:none;visibility:visible;display:inline;overflow:visible;enable-background:accumulate"
       id="path2985-1-7-45-13-8"
       sodipodi:cx="55"
       sodipodi:cy="215.21933"
       sodipodi:rx="9.0913725"
       sodipodi:ry="8.0812206"
       d="m 64.091372,215.21933 a 9.0913725,8.0812206 0 1 1 -18.182744,0 9.0913725,8.0812206 0 1 1 18.182744,0 z"
       transform="translate(341.48488,283.07418)" />
    <path
       sodipodi:type="arc"
       style="opacity:0.98999999000000005;color:#000000;fill:#b54856;fill-opacity:1;fill-rule:evenodd;stroke:#000000;stroke-width:0.60000001999999997;stroke-miterlimit:4;stroke-opacity:1;stroke-dasharray:none;marker:none;visibility:visible;display:inline;overflow:visible;enable-background:accumulate"
       id="path2985-1-7-45-87-4"
       sodipodi:cx="55"
       sodipodi:cy="215.21933"
       sodipodi:rx="9.0913725"
       sodipodi:ry="8.0812206"
       d="m 64.091372,215.21933 a 9.0913725,8.0812206 0 1 1 -18.182744,0 9.0913725,8.0812206 0 1 1 18.182744,0 z"
       transform="translate(452.60165,285.09449)" />
    <path
       sodipodi:type="arc"
       style="opacity:0.98999999000000005;color:#000000;fill:#b54856;fill-opacity:1;fill-rule:evenodd;stroke:#000000;stroke-width:0.60000001999999997;stroke-miterlimit:4;stroke-opacity:1;stroke-dasharray:none;marker:none;visibility:visible;display:inline;overflow:visible;enable-background:accumulate"
       id="path2985-1-7-45-42-9"
       sodipodi:cx="55"
       sodipodi:cy="215.21933"
       sodipodi:rx="9.0913725"
       sodipodi:ry="8.0812206"
       d="m 64.091372,215.21933 a 9.0913725,8.0812206 0 1 1 -18.182744,0 9.0913725,8.0812206 0 1 1 18.182744,0 z"
       transform="translate(463.71333,296.20616)" />
    <rect
       style="opacity:0.98999999000000005;color:#000000;fill:none;stroke:#8b7f13;stroke-width:5;stroke-miterlimit:4;stroke-opacity:1;stroke-dasharray:5, 5;marker:none;visibility:visible;display:inline;overflow:visible;enable-background:accumulate;stroke-dashoffset:0"
       id="rect4503"
       width="189.96777"
       height="181.38147"
       x="352.49338"
       y="186.10651" />
    <rect
       style="opacity:0.98999999000000005;color:#000000;fill:none;stroke:#b54856;stroke-width:4.47227572999999980;stroke-miterlimit:4;stroke-opacity:1;stroke-dasharray:4.47227564000000030, 4.47227564000000030;stroke-dashoffset:0;marker:none;visibility:visible;display:inline;overflow:visible;enable-background:accumulate"
       id="rect4503-6"
       width="184.06694"
       height="149.76633"
       x="381.18085"
       y="379.97903" />
  </g>
</svg>
